<?xml version="1.0" encoding="UTF-8" standalone="no"?>
<svg
   width="176.77164"
   height="28.51037"
   viewBox="0 0 176.77164 28.51037"
   fill="none"
   version="1.1"
   id="svg6"
   sodipodi:docname="dantonio-design-engineering-development-logotype-black.svg"
   inkscape:version="1.4 (86a8ad7, 2024-10-11)"
   xmlns:inkscape="http://www.inkscape.org/namespaces/inkscape"
   xmlns:sodipodi="http://sodipodi.sourceforge.net/DTD/sodipodi-0.dtd"
   xmlns="http://www.w3.org/2000/svg"
   xmlns:svg="http://www.w3.org/2000/svg"
   xmlns:rdf="http://www.w3.org/1999/02/22-rdf-syntax-ns#"
   xmlns:cc="http://creativecommons.org/ns#">
  <defs
     id="defs6" />
  <sodipodi:namedview
     id="namedview6"
     pagecolor="#ffffff"
     bordercolor="#cccccc"
     borderopacity="1"
     inkscape:showpageshadow="0"
     inkscape:pageopacity="1"
     inkscape:pagecheckerboard="0"
     inkscape:deskcolor="#d1d1d1"
     showgrid="false"
     inkscape:zoom="2.8461538"
     inkscape:cx="69.567568"
     inkscape:cy="87.486486"
     inkscape:window-width="1920"
     inkscape:window-height="991"
     inkscape:window-x="-9"
     inkscape:window-y="-9"
     inkscape:window-maximized="1"
     inkscape:current-layer="svg6">
    <inkscape:page
       x="0"
       y="0"
       width="176.77164"
       height="28.51037"
       id="page2"
       margin="0"
       bleed="0" />
  </sodipodi:namedview>
  <path
     d="M 10.73232,28.18267 H 6.5184484e-8 v -0.2868 H 2.08912 c 0.24578,0 0.40963,-0.1638 0.40963,-0.4096 V 1.0240797 c 0,-0.24578 -0.16385,-0.40963 -0.40963,-0.40963 H 6.5184484e-8 v -0.28675 H 10.73232 c 4.7517,0 9.0119,2.25297 9.0119,7.86497 V 20.31767 c 0,5.4481 -4.2602,7.865 -9.0119,7.865 z m 5.1614,-7.4144 V 7.7829697 c 0,-5.2433 -1.8024,-7.16852 -5.1614,-7.16852 h -4.0963 c -0.24577,0 -0.40963,0.16385 -0.40963,0.40963 V 27.48627 c 0,0.2458 0.16386,0.4096 0.40963,0.4096 h 4.0963 c 3.359,0 5.1614,-2.7035 5.1614,-7.1276 z m 8.071,-10.4456 h -0.2868 c 1.0651,-3.5228003 1.7205,-7.0866003 1.8024,-9.9949703 h 3.7277 v 0.32771 c -1.0651,2.90836 -3.1952,6.30836 -5.2433,9.6672603 z m 18.2228,8.0698 -4.0144,-15.2793003 h -0.0819 l -4.424,15.2793003 z m 8.0288,9.7902 h -7.6192 v -0.2868 h 1.2289 c 0.6555,0 0.8603,-0.1638 0.6555,-0.9421 l -2.2121,-8.2336 h -8.6841 l -0.9422,3.3999 c -1.3927,4.8746 -1.0241,5.7758 1.0241,5.7758 h 0.2867 v 0.2868 h -5.8987 v -0.2868 h 0.2049 c 1.9252,0 2.5397,-1.0241 3.9324,-5.8167 l 6.4312,-21.7514703 h 2.4988 l 7.4962,27.0766703 c 0.082,0.3277 0.3277,0.4915 0.7783,0.4915 h 0.8193 z m 20.9878,0.3277 h -0.3277 c -0.7783,-1.3109 -1.5566,-2.7036 -2.3758,-4.0963 L 55.80202,2.4168697 h -0.1639 V 21.46467 c 0,5.8987 0.3687,6.4312 3.2361,6.4312 h 0.1639 v 0.2868 h -7.1686 v -0.2868 h 0.2049 c 2.5806,0 3.1541,-1.065 3.1541,-6.4312 V 2.1300697 c 0,-1.4337 -0.1638,-1.51562 -0.4096,-1.51562 h -2.6217 v -0.28675 h 6.718 L 70.63062,20.68637 h 0.1639 V 7.0456697 c 0,-5.8987 -0.2867,-6.43122 -3.277,-6.43122 h -0.2049 v -0.28675 h 7.2505 v 0.28675 h -0.2048 c -2.6626,0 -3.1542,1.06504 -3.1542,6.43122 z m 19.1861,-0.3277 h -8.7251 v -0.2868 h 2.0891 c 0.2458,0 0.4096,-0.1638 0.4096,-0.4096 V 1.0240797 c 0,-0.24578 -0.1638,-0.40963 -0.4096,-0.40963 h -0.9012 c -3.359,0 -3.6047,0.28674 -3.6047,4.71072 v 0.8603 h -2.4988 v -5.85777 h 18.5973 v 5.85777 h -2.5397 v -0.8603 c 0,-4.42398 -0.2048,-4.71072 -3.6048,-4.71072 h -0.9012 c -0.2458,0 -0.4096,0.16385 -0.4096,0.40963 V 27.48627 c 0,0.2458 0.1638,0.4096 0.4096,0.4096 h 2.0891 z M 116.72662,7.7420697 V 20.80927 c 0,5.4481 -4.301,7.7011 -9.094,7.7011 -4.792,0 -9.094,-2.253 -9.094,-7.7011 V 7.7420697 c 0,-5.4481 4.302,-7.74206999954444 9.094,-7.74206999954444 4.752,0 9.094,2.13006999954444 9.094,7.74206999954444 z m -3.85,13.3949003 V 7.4143697 c 0,-5.2024 -1.885,-7.12763 -5.244,-7.12763 -3.359,0 -5.243,1.92523 -5.243,7.12763 V 21.13697 c 0,5.2023 1.884,7.0866 5.243,7.0866 3.359,0 5.244,-1.8843 5.244,-7.0866 z m 26.653,7.3734 h -0.328 c -0.778,-1.3109 -1.557,-2.7036 -2.376,-4.0963 l -12.698,-21.9972003 h -0.164 V 21.46467 c 0,5.8987 0.368,6.4312 3.236,6.4312 h 0.164 v 0.2868 h -7.169 v -0.2868 h 0.205 c 2.581,0 3.154,-1.065 3.154,-6.4312 V 2.1300697 c 0,-1.4337 -0.164,-1.51562 -0.41,-1.51562 h -2.621 v -0.28675 h 6.718 l 11.715,20.3586703 h 0.164 V 7.0456697 c 0,-5.8987 -0.287,-6.43122 -3.277,-6.43122 h -0.205 v -0.28675 h 7.251 v 0.28675 h -0.205 c -2.663,0 -3.154,1.06504 -3.154,6.43122 z m 14.926,-0.3277 h -8.684 v -0.2868 h 2.089 c 0.245,0 0.409,-0.1638 0.409,-0.4096 V 1.0240797 c 0,-0.24578 -0.164,-0.40963 -0.409,-0.40963 h -2.089 v -0.28675 h 8.684 v 0.28675 h -2.048 c -0.246,0 -0.41,0.16385 -0.41,0.40963 V 27.48627 c 0,0.2458 0.164,0.4096 0.41,0.4096 h 2.048 z m 22.316,-20.4406003 V 20.80927 c 0,5.4481 -4.301,7.7011 -9.094,7.7011 -4.793,0 -9.094,-2.253 -9.094,-7.7011 V 7.7420697 c 0,-5.4481 4.301,-7.74206999954444 9.094,-7.74206999954444 4.752,0 9.094,2.13006999954444 9.094,7.74206999954444 z m -3.851,13.3949003 V 7.4143697 c 0,-5.2024 -1.884,-7.12763 -5.243,-7.12763 -3.359,0 -5.243,1.92523 -5.243,7.12763 V 21.13697 c 0,5.2023 1.884,7.0866 5.243,7.0866 3.359,0 5.243,-1.8843 5.243,-7.0866 z"
     fill="#242D4C"
     id="path1"
     style="fill:white;fill-opacity:1" />
  <metadata
     id="metadata6">
    <rdf:RDF>
      <cc:Work
         rdf:about="" />
    </rdf:RDF>
  </metadata>
</svg>
