<?xml version="1.0" encoding="UTF-8" standalone="no"?>
<svg
   width="182"
   height="53"
   viewBox="0 0 182 53"
   fill="none"
   version="1.1"
   id="svg6"
   sodipodi:docname="dantonio-design-engineering-development-logotype-black.svg"
   inkscape:version="1.4 (86a8ad7, 2024-10-11)"
   xmlns:inkscape="http://www.inkscape.org/namespaces/inkscape"
   xmlns:sodipodi="http://sodipodi.sourceforge.net/DTD/sodipodi-0.dtd"
   xmlns="http://www.w3.org/2000/svg"
   xmlns:svg="http://www.w3.org/2000/svg"
   xmlns:rdf="http://www.w3.org/1999/02/22-rdf-syntax-ns#"
   xmlns:cc="http://creativecommons.org/ns#">
  <defs
     id="defs6" />
  <sodipodi:namedview
     id="namedview6"
     pagecolor="#ffffff"
     bordercolor="#cccccc"
     borderopacity="1"
     inkscape:showpageshadow="0"
     inkscape:pageopacity="1"
     inkscape:pagecheckerboard="0"
     inkscape:deskcolor="#d1d1d1"
     showgrid="false"
     inkscape:zoom="2.8461538"
     inkscape:cx="69.567568"
     inkscape:cy="87.486486"
     inkscape:window-width="1920"
     inkscape:window-height="991"
     inkscape:window-x="-9"
     inkscape:window-y="-9"
     inkscape:window-maximized="1"
     inkscape:current-layer="svg6" />
  <path
     d="M12.5347 36.4058H1.80238V36.119H3.8915C4.13728 36.119 4.30113 35.9552 4.30113 35.7094V9.24721C4.30113 9.00143 4.13728 8.83758 3.8915 8.83758H1.80238V8.55083H12.5347C17.2864 8.55083 21.5466 10.8038 21.5466 16.4158V28.5408C21.5466 33.9889 17.2864 36.4058 12.5347 36.4058ZM17.6961 28.9914V16.0061C17.6961 10.7628 15.8937 8.83758 12.5347 8.83758H8.4384C8.19263 8.83758 8.02877 9.00143 8.02877 9.24721V35.7094C8.02877 35.9552 8.19263 36.119 8.4384 36.119H12.5347C15.8937 36.119 17.6961 33.4155 17.6961 28.9914ZM25.7671 18.5458H25.4803C26.5454 15.023 27.2008 11.4592 27.2827 8.55083H31.0104V8.87854C29.9453 11.7869 27.8152 15.1869 25.7671 18.5458ZM43.9899 26.6156L39.9755 11.3363H39.8936L35.4696 26.6156H43.9899ZM52.0187 36.4058H44.3995V36.119H45.6284C46.2839 36.119 46.4887 35.9552 46.2839 35.1769L44.0718 26.9433H35.3877L34.4455 30.3432C33.0528 35.2178 33.4214 36.119 35.4696 36.119H35.7563V36.4058H29.8576V36.119H30.0625C31.9877 36.119 32.6022 35.0949 33.9949 30.3023L40.4261 8.55083H42.9249L50.4211 35.6275C50.5031 35.9552 50.7488 36.119 51.1994 36.119H52.0187V36.4058ZM73.0065 36.7335H72.6788C71.9005 35.4226 71.1222 34.0299 70.303 32.6372L57.6044 10.64H57.4405V29.6878C57.4405 35.5865 57.8092 36.119 60.6766 36.119H60.8405V36.4058H53.6719V36.119H53.8768C56.4574 36.119 57.0309 35.054 57.0309 29.6878V10.3532C57.0309 8.9195 56.8671 8.83758 56.6213 8.83758H53.9996V8.55083H60.7176L72.433 28.9095H72.5969V15.2688C72.5969 9.3701 72.3102 8.83758 69.3199 8.83758H69.115V8.55083H76.3655V8.83758H76.1607C73.4981 8.83758 73.0065 9.90262 73.0065 15.2688V36.7335ZM92.1926 36.4058H83.4675V36.119H85.5566C85.8024 36.119 85.9662 35.9552 85.9662 35.7094V9.24721C85.9662 9.00143 85.8024 8.83758 85.5566 8.83758H84.6554C81.2964 8.83758 81.0507 9.12432 81.0507 13.5483V14.4086H78.5519V8.55083H97.1492V14.4086H94.6095V13.5483C94.6095 9.12432 94.4047 8.83758 91.0047 8.83758H90.1035C89.8577 8.83758 89.6939 9.00143 89.6939 9.24721V35.7094C89.6939 35.9552 89.8577 36.119 90.1035 36.119H92.1926V36.4058ZM118.529 15.9652V29.0324C118.529 34.4805 114.228 36.7335 109.435 36.7335C104.643 36.7335 100.341 34.4805 100.341 29.0324V15.9652C100.341 10.5171 104.643 8.22313 109.435 8.22313C114.187 8.22313 118.529 10.3532 118.529 15.9652ZM114.679 29.3601V15.6375C114.679 10.4351 112.794 8.50987 109.435 8.50987C106.076 8.50987 104.192 10.4351 104.192 15.6375V29.3601C104.192 34.5624 106.076 36.4467 109.435 36.4467C112.794 36.4467 114.679 34.5624 114.679 29.3601ZM141.332 36.7335H141.004C140.226 35.4226 139.447 34.0299 138.628 32.6372L125.93 10.64H125.766V29.6878C125.766 35.5865 126.134 36.119 129.002 36.119H129.166V36.4058H121.997V36.119H122.202C124.783 36.119 125.356 35.054 125.356 29.6878V10.3532C125.356 8.9195 125.192 8.83758 124.946 8.83758H122.325V8.55083H129.043L140.758 28.9095H140.922V15.2688C140.922 9.3701 140.635 8.83758 137.645 8.83758H137.44V8.55083H144.691V8.83758H144.486C141.823 8.83758 141.332 9.90262 141.332 15.2688V36.7335ZM156.258 36.4058H147.574V36.119H149.663C149.908 36.119 150.072 35.9552 150.072 35.7094V9.24721C150.072 9.00143 149.908 8.83758 149.663 8.83758H147.574V8.55083H156.258V8.83758H154.21C153.964 8.83758 153.8 9.00143 153.8 9.24721V35.7094C153.8 35.9552 153.964 36.119 154.21 36.119H156.258V36.4058ZM178.574 15.9652V29.0324C178.574 34.4805 174.273 36.7335 169.48 36.7335C164.687 36.7335 160.386 34.4805 160.386 29.0324V15.9652C160.386 10.5171 164.687 8.22313 169.48 8.22313C174.232 8.22313 178.574 10.3532 178.574 15.9652ZM174.723 29.3601V15.6375C174.723 10.4351 172.839 8.50987 169.48 8.50987C166.121 8.50987 164.237 10.4351 164.237 15.6375V29.3601C164.237 34.5624 166.121 36.4467 169.48 36.4467C172.839 36.4467 174.723 34.5624 174.723 29.3601Z"
     fill="#242D4C"
     id="path1"
     style="fill:black;fill-opacity:1" />
  <path
     d="M2.54311 43.8447H4.56038C5.11212 43.8447 5.56902 43.9309 5.9311 44.1034C6.29892 44.2758 6.59202 44.5057 6.81042 44.793C7.02881 45.0804 7.18111 45.408 7.26732 45.7758C7.35928 46.1436 7.40526 46.5229 7.40526 46.9137C7.40526 47.3505 7.34778 47.7586 7.23284 48.1379C7.12364 48.5115 6.95123 48.8362 6.71559 49.1121C6.47995 49.3879 6.1811 49.6063 5.81902 49.7672C5.4627 49.9224 5.0374 50 4.54314 50H2.54311V43.8447ZM4.57763 49.6724C4.86499 49.6724 5.15235 49.6293 5.43971 49.5431C5.73282 49.4511 5.99719 49.3017 6.23282 49.0948C6.46846 48.8822 6.65812 48.6006 6.8018 48.25C6.95123 47.8936 7.02594 47.4482 7.02594 46.9137C7.02594 46.4942 6.98284 46.135 6.89663 45.8361C6.81617 45.5373 6.70697 45.2873 6.56904 45.0861C6.43685 44.8792 6.28168 44.7183 6.10351 44.6034C5.93109 44.4827 5.75006 44.3907 5.5604 44.3275C5.37649 44.2643 5.1897 44.224 5.00005 44.2068C4.81614 44.1838 4.64947 44.1723 4.50004 44.1723H2.92243V49.6724H4.57763ZM8.29313 43.8447H12.4311V44.1723H8.67245V46.6379H12.207V46.9655H8.67245V49.6724H12.4742V50H8.29313V43.8447ZM17.1344 45.6034C17.1229 45.339 17.0654 45.1091 16.962 44.9137C16.8643 44.7183 16.7292 44.5545 16.5568 44.4223C16.3844 44.2901 16.1775 44.1924 15.9361 44.1292C15.7005 44.0603 15.4418 44.0258 15.1602 44.0258C14.9878 44.0258 14.801 44.0459 14.5999 44.0861C14.4045 44.1263 14.2206 44.1982 14.0481 44.3016C13.8815 44.3993 13.7435 44.5344 13.6343 44.7068C13.5251 44.8735 13.4705 45.0833 13.4705 45.3361C13.4705 45.5833 13.5309 45.7844 13.6516 45.9396C13.7723 46.0948 13.9303 46.2212 14.1257 46.3189C14.3211 46.4109 14.5453 46.4856 14.7981 46.5431C15.051 46.6005 15.3068 46.6551 15.5654 46.7068C15.8298 46.7586 16.0855 46.8218 16.3327 46.8965C16.5855 46.9655 16.8097 47.0632 17.0051 47.1896C17.2062 47.3103 17.3672 47.4712 17.4878 47.6724C17.6085 47.8678 17.6689 48.1149 17.6689 48.4138C17.6689 48.7356 17.5999 49.0057 17.462 49.2241C17.324 49.4425 17.1488 49.6207 16.9361 49.7586C16.7292 49.8966 16.4965 49.9943 16.2378 50.0517C15.9849 50.1149 15.7407 50.1466 15.5051 50.1466C15.143 50.1466 14.8039 50.1063 14.4878 50.0259C14.1717 49.9511 13.8958 49.8276 13.6602 49.6552C13.4246 49.477 13.2378 49.25 13.0998 48.9741C12.9677 48.6983 12.9044 48.362 12.9102 47.9655H13.2895C13.2723 48.3046 13.3211 48.5919 13.4361 48.8276C13.551 49.0575 13.7091 49.2471 13.9102 49.3965C14.1171 49.546 14.3585 49.6552 14.6344 49.7241C14.9102 49.7874 15.2005 49.819 15.5051 49.819C15.689 49.819 15.8844 49.796 16.0913 49.75C16.3039 49.704 16.4965 49.6264 16.6689 49.5172C16.847 49.408 16.9936 49.2644 17.1085 49.0862C17.2292 48.908 17.2896 48.6839 17.2896 48.4138C17.2896 48.1551 17.2292 47.9454 17.1085 47.7844C16.9878 47.6178 16.8269 47.4856 16.6258 47.3879C16.4304 47.2844 16.2062 47.204 15.9533 47.1465C15.7062 47.0833 15.4505 47.0258 15.1861 46.9741C14.9275 46.9224 14.6717 46.862 14.4188 46.7931C14.166 46.7241 13.9418 46.6321 13.7464 46.5172C13.551 46.3965 13.393 46.2442 13.2723 46.0603C13.1516 45.8706 13.0912 45.6292 13.0912 45.3361C13.0912 45.043 13.1516 44.793 13.2723 44.5861C13.3987 44.3735 13.5596 44.2039 13.755 44.0775C13.9562 43.9453 14.1803 43.8505 14.4275 43.793C14.6746 43.7298 14.9188 43.6982 15.1602 43.6982C15.4821 43.6982 15.7809 43.7355 16.0568 43.8102C16.3384 43.8792 16.5827 43.9913 16.7896 44.1465C17.0022 44.2959 17.1717 44.4913 17.2982 44.7327C17.4246 44.9741 17.4965 45.2643 17.5137 45.6034H17.1344ZM18.5472 43.8447H18.9265V50H18.5472V43.8447ZM19.7879 46.9568C19.7879 46.5201 19.8511 46.1063 19.9776 45.7155C20.1098 45.3189 20.2994 44.9712 20.5466 44.6723C20.7937 44.3735 21.0954 44.1378 21.4517 43.9654C21.8138 43.7873 22.2276 43.6982 22.6931 43.6982C23.0092 43.6982 23.311 43.7442 23.5983 43.8361C23.8857 43.9281 24.1414 44.0631 24.3656 44.2413C24.5955 44.4195 24.788 44.635 24.9432 44.8879C25.0983 45.1407 25.2018 45.4281 25.2535 45.7499H24.8914C24.7478 45.2097 24.4891 44.7873 24.1156 44.4827C23.742 44.1781 23.2707 44.0258 22.7018 44.0258C22.288 44.0258 21.923 44.1062 21.6069 44.2672C21.2908 44.4281 21.0264 44.6436 20.8138 44.9137C20.6012 45.1838 20.4402 45.4971 20.331 45.8534C20.2218 46.204 20.1672 46.5718 20.1672 46.9568C20.1672 47.3477 20.219 47.7184 20.3224 48.0689C20.4316 48.4138 20.5897 48.7155 20.7966 48.9741C21.0092 49.2327 21.2736 49.4396 21.5897 49.5948C21.9058 49.7442 22.2765 49.819 22.7018 49.819C23.0696 49.819 23.4 49.7586 23.6932 49.6379C23.9863 49.5172 24.2334 49.3477 24.4345 49.1293C24.6414 48.9109 24.7966 48.6494 24.9001 48.3448C25.0035 48.0345 25.0466 47.6896 25.0294 47.3103H22.7621V46.9827H25.357V50H25.0294V48.6896H25.0121C24.9374 48.9138 24.8254 49.1178 24.6759 49.3017C24.5265 49.4799 24.3483 49.6322 24.1414 49.7586C23.9403 49.8793 23.7133 49.9741 23.4604 50.0431C23.2133 50.1121 22.9546 50.1466 22.6845 50.1466C22.219 50.1466 21.8052 50.0632 21.4431 49.8966C21.0868 49.7299 20.7851 49.5029 20.5379 49.2155C20.2908 48.9281 20.104 48.5919 19.9776 48.2069C19.8511 47.8161 19.7879 47.3994 19.7879 46.9568ZM26.4019 43.8447H26.8761L30.764 49.4914H30.7813V43.8447H31.1606V50H30.7123L26.7985 44.3103H26.7812V50H26.4019V43.8447Z"
     fill="#242D4C"
     id="path2"
     style="fill:black;fill-opacity:1" />
  <path
     d="M40.7266 44.4951V50.0606"
     stroke="#242D4C"
     stroke-width="0.327894"
     id="path3"
     style="fill:black;fill-opacity:1" />
  <path
     d="M50.2697 43.8447H54.4077V44.1723H50.649V46.6379H54.1835V46.9655H50.649V49.6724H54.4508V50H50.2697V43.8447ZM55.0936 43.8447H55.5678L59.4558 49.4914H59.473V43.8447H59.8523V50H59.404L55.4902 44.3103H55.4729V50H55.0936V43.8447ZM60.7121 46.9568C60.7121 46.5201 60.7753 46.1063 60.9018 45.7155C61.034 45.3189 61.2236 44.9712 61.4707 44.6723C61.7179 44.3735 62.0196 44.1378 62.3759 43.9654C62.738 43.7873 63.1518 43.6982 63.6173 43.6982C63.9334 43.6982 64.2352 43.7442 64.5225 43.8361C64.8099 43.9281 65.0656 44.0631 65.2898 44.2413C65.5197 44.4195 65.7122 44.635 65.8674 44.8879C66.0225 45.1407 66.126 45.4281 66.1777 45.7499H65.8156C65.672 45.2097 65.4133 44.7873 65.0398 44.4827C64.6662 44.1781 64.1949 44.0258 63.626 44.0258C63.2122 44.0258 62.8472 44.1062 62.5311 44.2672C62.215 44.4281 61.9506 44.6436 61.738 44.9137C61.5253 45.1838 61.3644 45.4971 61.2552 45.8534C61.146 46.204 61.0914 46.5718 61.0914 46.9568C61.0914 47.3477 61.1432 47.7184 61.2466 48.0689C61.3558 48.4138 61.5139 48.7155 61.7208 48.9741C61.9334 49.2327 62.1978 49.4396 62.5139 49.5948C62.83 49.7442 63.2007 49.819 63.626 49.819C63.9938 49.819 64.3242 49.7586 64.6173 49.6379C64.9105 49.5172 65.1576 49.3477 65.3587 49.1293C65.5656 48.9109 65.7208 48.6494 65.8243 48.3448C65.9277 48.0345 65.9708 47.6896 65.9536 47.3103H63.6863V46.9827H66.2812V50H65.9536V48.6896H65.9363C65.8616 48.9138 65.7496 49.1178 65.6001 49.3017C65.4507 49.4799 65.2725 49.6322 65.0656 49.7586C64.8645 49.8793 64.6375 49.9741 64.3846 50.0431C64.1375 50.1121 63.8788 50.1466 63.6087 50.1466C63.1432 50.1466 62.7294 50.0632 62.3673 49.8966C62.011 49.7299 61.7093 49.5029 61.4621 49.2155C61.215 48.9281 61.0282 48.5919 60.9018 48.2069C60.7753 47.8161 60.7121 47.3994 60.7121 46.9568ZM67.3261 43.8447H67.7054V50H67.3261V43.8447ZM68.791 43.8447H69.2651L73.1531 49.4914H73.1703V43.8447H73.5497V50H73.1014L69.1875 44.3103H69.1703V50H68.791V43.8447ZM74.6336 43.8447H78.7716V44.1723H75.0129V46.6379H78.5475V46.9655H75.0129V49.6724H78.8147V50H74.6336V43.8447ZM79.4576 43.8447H83.5956V44.1723H79.8369V46.6379H83.3714V46.9655H79.8369V49.6724H83.6387V50H79.4576V43.8447ZM84.2815 43.8447H86.8505C87.1206 43.8447 87.3735 43.8735 87.6091 43.9309C87.8448 43.9827 88.0517 44.0717 88.2298 44.1982C88.408 44.3189 88.5459 44.4798 88.6436 44.681C88.7471 44.8821 88.7988 45.1321 88.7988 45.431C88.7988 45.8448 88.681 46.1953 88.4454 46.4827C88.2155 46.7643 87.8936 46.9396 87.4798 47.0086V47.0258C87.7614 47.0603 87.9827 47.135 88.1436 47.25C88.3103 47.3649 88.4339 47.5057 88.5143 47.6724C88.5948 47.839 88.6465 48.023 88.6695 48.2241C88.6925 48.4253 88.704 48.6264 88.704 48.8276C88.704 48.9483 88.704 49.0661 88.704 49.181C88.704 49.296 88.7097 49.4052 88.7212 49.5086C88.7327 49.6063 88.75 49.6983 88.773 49.7845C88.8017 49.8707 88.8391 49.9425 88.885 50H88.4626C88.3821 49.8563 88.3362 49.6897 88.3247 49.5C88.3189 49.3046 88.3161 49.1034 88.3161 48.8965C88.3161 48.6896 88.3074 48.4856 88.2902 48.2845C88.273 48.0776 88.2184 47.8936 88.1264 47.7327C88.0344 47.5718 87.8879 47.4425 87.6867 47.3448C87.4913 47.2471 87.2126 47.1982 86.8505 47.1982H84.6608V50H84.2815V43.8447ZM86.8505 46.8706C87.0747 46.8706 87.2816 46.8448 87.4712 46.7931C87.6666 46.7356 87.8333 46.6494 87.9712 46.5344C88.1092 46.4195 88.2184 46.2729 88.2988 46.0948C88.3793 45.9166 88.4195 45.704 88.4195 45.4568C88.4195 45.2269 88.3764 45.0315 88.2902 44.8706C88.204 44.7039 88.089 44.5689 87.9454 44.4654C87.8017 44.362 87.635 44.2873 87.4454 44.2413C87.2557 44.1953 87.0574 44.1723 86.8505 44.1723H84.6608V46.8706H86.8505ZM89.7116 43.8447H90.0909V50H89.7116V43.8447ZM91.1765 43.8447H91.6506L95.5386 49.4914H95.5559V43.8447H95.9352V50H95.4869L91.573 44.3103H91.5558V50H91.1765V43.8447ZM96.795 46.9568C96.795 46.5201 96.8582 46.1063 96.9846 45.7155C97.1168 45.3189 97.3065 44.9712 97.5536 44.6723C97.8007 44.3735 98.1025 44.1378 98.4588 43.9654C98.8209 43.7873 99.2347 43.6982 99.7002 43.6982C100.016 43.6982 100.318 43.7442 100.605 43.8361C100.893 43.9281 101.148 44.0631 101.373 44.2413C101.603 44.4195 101.795 44.635 101.95 44.8879C102.105 45.1407 102.209 45.4281 102.261 45.7499H101.898C101.755 45.2097 101.496 44.7873 101.123 44.4827C100.749 44.1781 100.278 44.0258 99.7088 44.0258C99.295 44.0258 98.9301 44.1062 98.614 44.2672C98.2979 44.4281 98.0335 44.6436 97.8208 44.9137C97.6082 45.1838 97.4473 45.4971 97.3381 45.8534C97.2289 46.204 97.1743 46.5718 97.1743 46.9568C97.1743 47.3477 97.226 47.7184 97.3295 48.0689C97.4387 48.4138 97.5967 48.7155 97.8036 48.9741C98.0163 49.2327 98.2806 49.4396 98.5967 49.5948C98.9128 49.7442 99.2835 49.819 99.7088 49.819C100.077 49.819 100.407 49.7586 100.7 49.6379C100.993 49.5172 101.24 49.3477 101.442 49.1293C101.648 48.9109 101.804 48.6494 101.907 48.3448C102.011 48.0345 102.054 47.6896 102.036 47.3103H99.7692V46.9827H102.364V50H102.036V48.6896H102.019C101.944 48.9138 101.832 49.1178 101.683 49.3017C101.534 49.4799 101.355 49.6322 101.148 49.7586C100.947 49.8793 100.72 49.9741 100.467 50.0431C100.22 50.1121 99.9617 50.1466 99.6916 50.1466C99.226 50.1466 98.8122 50.0632 98.4502 49.8966C98.0938 49.7299 97.7921 49.5029 97.545 49.2155C97.2979 48.9281 97.1111 48.5919 96.9846 48.2069C96.8582 47.8161 96.795 47.3994 96.795 46.9568Z"
     fill="#242D4C"
     id="path4"
     style="fill:black;fill-opacity:1" />
  <path
     d="M112.134 44.4951V50.0606"
     stroke="#242D4C"
     stroke-width="0.327894"
     id="path5"
     style="fill:black;fill-opacity:1" />
  <path
     d="M121.677 43.8447H123.694C124.246 43.8447 124.703 43.9309 125.065 44.1034C125.432 44.2758 125.726 44.5057 125.944 44.793C126.162 45.0804 126.315 45.408 126.401 45.7758C126.493 46.1436 126.539 46.5229 126.539 46.9137C126.539 47.3505 126.481 47.7586 126.366 48.1379C126.257 48.5115 126.085 48.8362 125.849 49.1121C125.613 49.3879 125.315 49.6063 124.953 49.7672C124.596 49.9224 124.171 50 123.677 50H121.677V43.8447ZM123.711 49.6724C123.999 49.6724 124.286 49.6293 124.573 49.5431C124.866 49.4511 125.131 49.3017 125.366 49.0948C125.602 48.8822 125.792 48.6006 125.935 48.25C126.085 47.8936 126.159 47.4482 126.159 46.9137C126.159 46.4942 126.116 46.135 126.03 45.8361C125.95 45.5373 125.841 45.2873 125.703 45.0861C125.57 44.8792 125.415 44.7183 125.237 44.6034C125.065 44.4827 124.884 44.3907 124.694 44.3275C124.51 44.2643 124.323 44.224 124.134 44.2068C123.95 44.1838 123.783 44.1723 123.634 44.1723H122.056V49.6724H123.711ZM127.427 43.8447H131.565V44.1723H127.806V46.6379H131.341V46.9655H127.806V49.6724H131.608V50H127.427V43.8447ZM134.095 49.6724H134.113L136.242 43.8447H136.621L134.32 50H133.88L131.587 43.8447H131.983L134.095 49.6724ZM137.041 43.8447H141.179V44.1723H137.42V46.6379H140.955V46.9655H137.42V49.6724H141.222V50H137.041V43.8447ZM141.865 43.8447H142.244V49.6724H145.736V50H141.865V43.8447ZM151.441 46.9224C151.441 47.3706 151.375 47.7931 151.243 48.1896C151.111 48.5804 150.918 48.9224 150.666 49.2155C150.418 49.5029 150.114 49.7299 149.752 49.8966C149.39 50.0632 148.979 50.1466 148.519 50.1466C148.059 50.1466 147.645 50.0632 147.278 49.8966C146.916 49.7299 146.608 49.5029 146.355 49.2155C146.108 48.9224 145.918 48.5804 145.786 48.1896C145.654 47.7931 145.588 47.3706 145.588 46.9224C145.588 46.4741 145.654 46.0545 145.786 45.6637C145.918 45.2672 146.108 44.9252 146.355 44.6378C146.608 44.3447 146.916 44.1149 147.278 43.9482C147.645 43.7815 148.059 43.6982 148.519 43.6982C148.979 43.6982 149.39 43.7815 149.752 43.9482C150.114 44.1149 150.418 44.3447 150.666 44.6378C150.918 44.9252 151.111 45.2672 151.243 45.6637C151.375 46.0545 151.441 46.4741 151.441 46.9224ZM145.967 46.9224C145.967 47.3189 146.025 47.6925 146.14 48.0431C146.255 48.3937 146.421 48.7011 146.64 48.9655C146.858 49.2241 147.125 49.431 147.441 49.5862C147.757 49.7414 148.117 49.819 148.519 49.819C148.921 49.819 149.278 49.7414 149.588 49.5862C149.904 49.431 150.171 49.2241 150.39 48.9655C150.608 48.7011 150.775 48.3937 150.89 48.0431C151.005 47.6925 151.062 47.3189 151.062 46.9224C151.062 46.5258 151.005 46.1522 150.89 45.8017C150.775 45.4511 150.608 45.1465 150.39 44.8879C150.171 44.6235 149.904 44.4137 149.588 44.2585C149.278 44.1034 148.921 44.0258 148.519 44.0258C148.117 44.0258 147.757 44.1034 147.441 44.2585C147.125 44.4137 146.858 44.6235 146.64 44.8879C146.421 45.1465 146.255 45.4511 146.14 45.8017C146.025 46.1522 145.967 46.5258 145.967 46.9224ZM152.254 43.8447H154.874C155.047 43.8447 155.236 43.8648 155.443 43.9051C155.656 43.9453 155.851 44.0286 156.03 44.1551C156.213 44.2758 156.366 44.4511 156.486 44.681C156.607 44.9051 156.667 45.2011 156.667 45.5689C156.667 46.1091 156.501 46.5258 156.167 46.8189C155.834 47.112 155.357 47.2586 154.736 47.2586H152.633V50H152.254V43.8447ZM152.633 46.931H154.797C155.073 46.931 155.305 46.8908 155.495 46.8103C155.69 46.7241 155.846 46.6149 155.961 46.4827C156.076 46.3505 156.159 46.204 156.211 46.043C156.262 45.8821 156.288 45.7212 156.288 45.5603C156.288 45.4453 156.271 45.3103 156.236 45.1551C156.202 44.9942 156.133 44.8419 156.03 44.6982C155.926 44.5488 155.78 44.4252 155.59 44.3275C155.406 44.224 155.159 44.1723 154.849 44.1723H152.633V46.931ZM157.347 43.8447H157.89L160.295 49.5776H160.313L162.692 43.8447H163.235V50H162.856V44.3103H162.838L160.494 50H160.114L157.744 44.3103H157.726V50H157.347V43.8447ZM164.318 43.8447H168.456V44.1723H164.697V46.6379H168.232V46.9655H164.697V49.6724H168.499V50H164.318V43.8447ZM169.142 43.8447H169.616L173.504 49.4914H173.521V43.8447H173.9V50H173.452L169.538 44.3103H169.521V50H169.142V43.8447ZM174.321 44.1723V43.8447H179.036V44.1723H176.864V50H176.484V44.1723H174.321Z"
     fill="#242D4C"
     id="path6"
     style="fill:black;fill-opacity:1" />
  <metadata
     id="metadata6">
    <rdf:RDF>
      <cc:Work
         rdf:about="" />
    </rdf:RDF>
  </metadata>
</svg>
