<?xml version="1.0" encoding="UTF-8" standalone="no"?>
<svg
   width="138.01453"
   height="32.795116"
   viewBox="0 0 138.01453 32.795116"
   fill="none"
   version="1.1"
   id="svg6"
   sodipodi:docname="dantonio-design-engineering-development-logotype-black.svg"
   inkscape:version="1.4 (86a8ad7, 2024-10-11)"
   xmlns:inkscape="http://www.inkscape.org/namespaces/inkscape"
   xmlns:sodipodi="http://sodipodi.sourceforge.net/DTD/sodipodi-0.dtd"
   xmlns="http://www.w3.org/2000/svg"
   xmlns:svg="http://www.w3.org/2000/svg"
   xmlns:rdf="http://www.w3.org/1999/02/22-rdf-syntax-ns#"
   xmlns:cc="http://creativecommons.org/ns#">
  <defs
     id="defs6" />
  <sodipodi:namedview
     id="namedview6"
     pagecolor="#ffffff"
     bordercolor="#cccccc"
     borderopacity="1"
     inkscape:showpageshadow="0"
     inkscape:pageopacity="1"
     inkscape:pagecheckerboard="0"
     inkscape:deskcolor="#d1d1d1"
     showgrid="false"
     inkscape:zoom="2.8461538"
     inkscape:cx="69.567568"
     inkscape:cy="87.486486"
     inkscape:window-width="1920"
     inkscape:window-height="991"
     inkscape:window-x="-9"
     inkscape:window-y="-9"
     inkscape:window-maximized="1"
     inkscape:current-layer="svg6">
    <inkscape:page
       x="0"
       y="0"
       width="138.01453"
       height="32.795116"
       id="page2"
       margin="0"
       bleed="0" />
  </sodipodi:namedview>
  <path
     d="M 8.379264,22.003632 H -5.2211512e-8 V 21.779713 H 1.631081 c 0.191893,0 0.319819,-0.127887 0.319819,-0.319796 V 0.79954947 c 0,-0.191892 -0.127926,-0.319818 -0.319819,-0.319818 H -5.2211512e-8 v -0.223881 H 8.379264 c 3.709892,0 7.036045,1.75900803 7.036045,6.14057903 V 15.86303 c 0,4.253606 -3.326153,6.140602 -7.036045,6.140602 z m 4.029765,-5.788796 V 6.0765565 c 0,-4.093709 -1.407225,-5.59682503 -4.029765,-5.59682503 H 5.181076 c -0.191885,0 -0.319819,0.127926 -0.319819,0.319818 V 21.459917 c 0,0.191909 0.127934,0.319796 0.319819,0.319796 h 3.198188 c 2.62254,0 4.029765,-2.110759 4.029765,-5.564877 z m 6.301437,-8.1554075 h -0.223919 c 0.831577,-2.750428 1.343281,-5.532866 1.407224,-7.80357803 h 2.910404 v 0.25586 C 21.972598,2.7824145 20.309521,5.4369655 18.710466,8.0594285 Z M 32.937926,14.359929 29.803681,2.4306075 h -0.06394 l -3.45404,11.9293215 z m 6.268489,7.643703 h -5.948694 v -0.223919 h 0.959464 c 0.511782,0 0.67168,-0.127887 0.511782,-0.735545 l -1.727098,-6.428387 h -6.780115 l -0.735623,2.654473 c -1.087351,3.805847 -0.799567,4.509459 0.799566,4.509459 h 0.223842 v 0.223919 h -4.605413 v -0.223919 h 0.159976 c 1.5031,0 1.982872,-0.799567 3.070223,-4.541391 L 30.155487,0.25585047 h 1.950939 L 37.959088,21.395974 c 0.06402,0.255852 0.255852,0.383739 0.607658,0.383739 h 0.639669 z m 16.386234,0.255852 H 55.336797 C 54.729139,21.235998 54.121481,20.148647 53.48189,19.061296 L 43.567453,1.8869715 H 43.439488 V 16.758551 c 0,4.605412 0.287862,5.021162 2.526586,5.021162 h 0.127965 v 0.223919 h -5.596887 v -0.223919 h 0.159975 c 2.014805,0 2.462565,-0.831499 2.462565,-5.021162 V 1.6630525 c 0,-1.11936203 -0.127887,-1.18332103 -0.319795,-1.18332103 h -2.046894 v -0.223881 h 5.245082 L 55.144889,16.150892 h 0.127965 V 5.5009095 c 0,-4.60541303 -0.223841,-5.02117803 -2.558519,-5.02117803 h -0.159976 v -0.223881 h 5.660831 v 0.223881 h -0.159898 c -2.078826,0 -2.462643,0.83153003 -2.462643,5.02117803 z M 70.572206,22.003632 H 63.76008 v -0.223919 h 1.631066 c 0.191908,0 0.319795,-0.127887 0.319795,-0.319796 V 0.79954947 c 0,-0.191892 -0.127887,-0.319818 -0.319795,-0.319818 h -0.703613 c -2.62254,0 -2.814371,0.223872 -2.814371,3.67789603 v 0.67168 H 59.922223 V 0.25585047 h 14.51985 V 4.8293075 h -1.982871 v -0.67168 c 0,-3.45402403 -0.159898,-3.67789603 -2.81445,-3.67789603 H 68.94114 c -0.191908,0 -0.319795,0.127926 -0.319795,0.319818 V 21.459917 c 0,0.191909 0.127887,0.319796 0.319795,0.319796 h 1.631066 z M 91.13436,6.0446235 V 16.246847 c 0,4.253606 -3.35801,6.012637 -7.10014,6.012637 -3.74136,0 -7.100147,-1.759031 -7.100147,-6.012637 V 6.0446235 c 0,-4.253606 3.358787,-6.04462403027985 7.100147,-6.04462403027985 3.71012,0 7.10014,1.66305303027985 7.10014,6.04462403027985 z M 88.12847,16.502699 V 5.7887715 c 0,-4.061776 -1.47171,-5.56490003 -4.09425,-5.56490003 -2.62254,0 -4.09348,1.50312403 -4.09348,5.56490003 V 16.502699 c 0,4.061698 1.47094,5.532866 4.09348,5.532866 2.62254,0 4.09425,-1.471168 4.09425,-5.532866 z m 20.80934,5.756785 h -0.25608 c -0.60743,-1.023486 -1.21563,-2.110837 -1.85506,-3.198188 L 96.9127,1.8869715 H 96.78465 V 16.758551 c 0,4.605412 0.28732,5.021162 2.52651,5.021162 h 0.12804 v 0.223919 h -5.59719 v -0.223919 h 0.16005 c 2.01512,0 2.46249,-0.831499 2.46249,-5.021162 V 1.6630525 c 0,-1.11936203 -0.12805,-1.18332103 -0.32011,-1.18332103 h -2.04635 v -0.223881 h 5.24508 l 9.14649,15.89504153 h 0.12805 V 5.5009095 c 0,-4.60541303 -0.22408,-5.02117803 -2.55852,-5.02117803 h -0.16006 v -0.223881 h 5.66123 v 0.223881 h -0.16006 c -2.07914,0 -2.46249,0.83153003 -2.46249,5.02117803 z m 11.65349,-0.255852 h -6.78004 v -0.223919 h 1.63099 c 0.19128,0 0.31932,-0.127887 0.31932,-0.319796 V 0.79954947 c 0,-0.191892 -0.12804,-0.319818 -0.31932,-0.319818 h -1.63099 v -0.223881 h 6.78004 v 0.223881 h -1.59898 c -0.19207,0 -0.32011,0.127926 -0.32011,0.319818 V 21.459917 c 0,0.191909 0.12804,0.319796 0.32011,0.319796 h 1.59898 z M 138.01452,6.0446235 V 16.246847 c 0,4.253606 -3.358,6.012637 -7.10014,6.012637 -3.74214,0 -7.10015,-1.759031 -7.10015,-6.012637 V 6.0446235 c 0,-4.253606 3.35801,-6.04462403027985 7.10015,-6.04462403027985 3.71013,0 7.10014,1.66305303027985 7.10014,6.04462403027985 z M 135.00785,16.502699 V 5.7887715 c 0,-4.061776 -1.47093,-5.56490003 -4.09347,-5.56490003 -2.62254,0 -4.09348,1.50312403 -4.09348,5.56490003 V 16.502699 c 0,4.061698 1.47094,5.532866 4.09348,5.532866 2.62254,0 4.09347,-1.471168 4.09347,-5.532866 z"
     fill="#242D4C"
     id="path1"
     style="fill:black;fill-opacity:1;stroke-width:1" />
  <path
     d="m 30.390103,28.319357 v 4.345266"
     stroke="#242d4c"
     stroke-width="0.256003"
     id="path3"
     style="fill:black;fill-opacity:1" />
  <path
     d="m 86.14146,28.319357 v 4.345266"
     stroke="#242d4c"
     stroke-width="0.256003"
     id="path5"
     style="fill:black;fill-opacity:1" />
  <metadata
     id="metadata6">
    <rdf:RDF>
      <cc:Work
         rdf:about="" />
    </rdf:RDF>
  </metadata>
  <text
     xml:space="preserve"
     style="font-style:normal;font-variant:normal;font-weight:normal;font-stretch:normal;font-size:5.98994px;line-height:0;font-family:'Plus Jakarta Sans';-inkscape-font-specification:'Plus Jakarta Sans, @wght=300';font-variant-ligatures:normal;font-variant-caps:normal;font-variant-numeric:normal;font-variant-east-asian:normal;font-variation-settings:'wght' 300;text-align:center;letter-spacing:0.0761598px;word-spacing:0px;writing-mode:lr-tb;direction:ltr;text-anchor:middle;fill:black;fill-opacity:1;stroke-width:10.957;stroke-linecap:square;stroke-miterlimit:3.2;stroke-dashoffset:27.9439;paint-order:fill markers stroke"
     x="11.056153"
     y="32.723244"
     id="text1"><tspan
       sodipodi:role="line"
       id="tspan1"
       x="11.094235"
       y="32.723244"
       style="font-style:normal;font-variant:normal;font-weight:normal;font-stretch:normal;font-size:5.98994px;font-family:'Plus Jakarta Sans';-inkscape-font-specification:'Plus Jakarta Sans, @wght=300';font-variant-ligatures:normal;font-variant-caps:normal;font-variant-numeric:normal;font-variant-east-asian:normal;font-variation-settings:'wght' 300;fill:black;fill-opacity:1;stroke-width:10.957">DESIGN</tspan></text>
  <text
     xml:space="preserve"
     style="font-style:normal;font-variant:normal;font-weight:normal;font-stretch:normal;font-size:5.98994px;line-height:0;font-family:'Plus Jakarta Sans';-inkscape-font-specification:'Plus Jakarta Sans, @wght=300';font-variant-ligatures:normal;font-variant-caps:normal;font-variant-numeric:normal;font-variant-east-asian:normal;font-variation-settings:'wght' 300;text-align:center;letter-spacing:0.0761598px;word-spacing:0px;writing-mode:lr-tb;direction:ltr;text-anchor:middle;fill:black;fill-opacity:1;stroke-width:10.957;stroke-linecap:square;stroke-miterlimit:3.2;stroke-dashoffset:27.9439;paint-order:fill markers stroke"
     x="58.16695"
     y="32.723244"
     id="text1-5"><tspan
       sodipodi:role="line"
       id="tspan1-2"
       x="58.205029"
       y="32.723244"
       style="font-style:normal;font-variant:normal;font-weight:normal;font-stretch:normal;font-size:5.98994px;font-family:'Plus Jakarta Sans';-inkscape-font-specification:'Plus Jakarta Sans, @wght=300';font-variant-ligatures:normal;font-variant-caps:normal;font-variant-numeric:normal;font-variant-east-asian:normal;font-variation-settings:'wght' 300;fill:black;fill-opacity:1;stroke-width:10.957">ENGINEERING</tspan></text>
  <text
     xml:space="preserve"
     style="font-style:normal;font-variant:normal;font-weight:normal;font-stretch:normal;font-size:5.98994px;line-height:0;font-family:'Plus Jakarta Sans';-inkscape-font-specification:'Plus Jakarta Sans, @wght=300';font-variant-ligatures:normal;font-variant-caps:normal;font-variant-numeric:normal;font-variant-east-asian:normal;font-variation-settings:'wght' 300;text-align:center;letter-spacing:0.0761598px;word-spacing:0px;writing-mode:lr-tb;direction:ltr;text-anchor:middle;fill:black;fill-opacity:1;stroke-width:10.957;stroke-linecap:square;stroke-miterlimit:3.2;stroke-dashoffset:27.9439;paint-order:fill markers stroke"
     x="115.71951"
     y="32.723244"
     id="text1-5-6"><tspan
       sodipodi:role="line"
       id="tspan1-2-1"
       x="115.7576"
       y="32.723244"
       style="font-style:normal;font-variant:normal;font-weight:normal;font-stretch:normal;font-size:5.98994px;font-family:'Plus Jakarta Sans';-inkscape-font-specification:'Plus Jakarta Sans, @wght=300';font-variant-ligatures:normal;font-variant-caps:normal;font-variant-numeric:normal;font-variant-east-asian:normal;font-variation-settings:'wght' 300;fill:black;fill-opacity:1;stroke-width:10.957">DEVELOPMENT</tspan></text>
</svg>
